STARTFONT 2.1
COMMENT cbm.bdf was designed by Peter Weighill.
FONT cbm16
SIZE 16 75 75
FONTBOUNDINGBOX 0 0 0 0
STARTPROPERTIES 2
FONT_DESCENT 0
FONT_ASCENT 16
ENDPROPERTIES
CHARS 96
STARTCHAR #
ENCODING 35
SWIDTH 1 0
DWIDTH 16 0
BBX 16 16 0 0
BITMAP
3C3C
3C3C
3C3C
3C3C
FFFF
FFFF
3C3C
3C3C
FFFF
FFFF
3C3C
3C3C
3C3C
3C3C
0000
0000
ENDCHAR
STARTCHAR $
ENCODING 36
SWIDTH 1 0
DWIDTH 16 0
BBX 16 16 0 0
BITMAP
03C0
03C0
0FFC
0FFC
3C00
3C00
0FF0
0FF0
003C
003C
3FF0
3FF0
03C0
03C0
0000
0000
ENDCHAR
STARTCHAR %
ENCODING 37
SWIDTH 1 0
DWIDTH 16 0
BBX 16 16 0 0
BITMAP
3C0C
3C0C
3C3C
3C3C
00F0
00F0
03C0
03C0
0F00
0F00
3C3C
3C3C
303C
303C
0000
0000
ENDCHAR
STARTCHAR &
ENCODING 38
SWIDTH 1 0
DWIDTH 16 0
BBX 16 16 0 0
BITMAP
0FF0
0FF0
3C3C
3C3C
0FF0
0FF0
0FC0
0FC0
3C3F
3C3F
3C3C
3C3C
0FFF
0FFF
0000
0000
ENDCHAR
STARTCHAR '
ENCODING 39
SWIDTH 1 0
DWIDTH 16 0
BBX 16 16 0 0
BITMAP
003C
003C
00F0
00F0
03C0
03C0
0000
0000
0000
0000
0000
0000
0000
0000
0000
0000
ENDCHAR
STARTCHAR (
ENCODING 40
SWIDTH 1 0
DWIDTH 16 0
BBX 16 16 0 0
BITMAP
00F0
00F0
03C0
03C0
0F00
0F00
0F00
0F00
0F00
0F00
03C0
03C0
00F0
00F0
0000
0000
ENDCHAR
STARTCHAR )
ENCODING 41
SWIDTH 1 0
DWIDTH 16 0
BBX 16 16 0 0
BITMAP
0F00
0F00
03C0
03C0
00F0
00F0
00F0
00F0
00F0
00F0
03C0
03C0
0F00
0F00
0000
0000
ENDCHAR
STARTCHAR +
ENCODING 43
SWIDTH 1 0
DWIDTH 16 0
BBX 16 16 0 0
BITMAP
0000
0000
03C0
03C0
03C0
03C0
3FFC
3FFC
03C0
03C0
03C0
03C0
0000
0000
0000
0000
ENDCHAR
STARTCHAR ,
ENCODING 44
SWIDTH 1 0
DWIDTH 16 0
BBX 16 16 0 0
BITMAP
0000
0000
0000
0000
0000
0000
0000
0000
0000
0000
03C0
03C0
03C0
03C0
0F00
0F00
ENDCHAR
STARTCHAR 0
ENCODING 48
SWIDTH 1 0
DWIDTH 16 0
BBX 16 16 0 0
BITMAP
0FF0
0FF0
3C3C
3C3C
3CFC
3CFC
3F3C
3F3C
3C3C
3C3C
3C3C
3C3C
0FF0
0FF0
0000
0000
ENDCHAR
STARTCHAR 1
ENCODING 49
SWIDTH 1 0
DWIDTH 16 0
BBX 16 16 0 0
BITMAP
03C0
03C0
03C0
03C0
0FC0
0FC0
03C0
03C0
03C0
03C0
03C0
03C0
3FFC
3FFC
0000
0000
ENDCHAR
STARTCHAR 2
ENCODING 50
SWIDTH 1 0
DWIDTH 16 0
BBX 16 16 0 0
BITMAP
0FF0
0FF0
3C3C
3C3C
003C
003C
00F0
00F0
0F00
0F00
3C00
3C00
3FFC
3FFC
0000
0000
ENDCHAR
STARTCHAR 3
ENCODING 51
SWIDTH 1 0
DWIDTH 16 0
BBX 16 16 0 0
BITMAP
0FF0
0FF0
3C3C
3C3C
003C
003C
03F0
03F0
003C
003C
3C3C
3C3C
0FF0
0FF0
0000
0000
ENDCHAR
STARTCHAR 4
ENCODING 52
SWIDTH 1 0
DWIDTH 16 0
BBX 16 16 0 0
BITMAP
003C
003C
00FC
00FC
03FC
03FC
3C3C
3C3C
3FFF
3FFF
003C
003C
003C
003C
0000
0000
ENDCHAR
STARTCHAR 5
ENCODING 53
SWIDTH 1 0
DWIDTH 16 0
BBX 16 16 0 0
BITMAP
3FFC
3FFC
3C00
3C00
3FF0
3FF0
003C
003C
003C
003C
3C3C
3C3C
0FF0
0FF0
0000
0000
ENDCHAR
STARTCHAR 6
ENCODING 54
SWIDTH 1 0
DWIDTH 16 0
BBX 16 16 0 0
BITMAP
0FF0
0FF0
3C3C
3C3C
3C00
3C00
3FF0
3FF0
3C3C
3C3C
3C3C
3C3C
0FF0
0FF0
0000
0000
ENDCHAR
STARTCHAR 7
ENCODING 55
SWIDTH 1 0
DWIDTH 16 0
BBX 16 16 0 0
BITMAP
3FFC
3FFC
3C3C
3C3C
00F0
00F0
03C0
03C0
03C0
03C0
03C0
03C0
03C0
03C0
0000
0000
ENDCHAR
STARTCHAR 8
ENCODING 56
SWIDTH 1 0
DWIDTH 16 0
BBX 16 16 0 0
BITMAP
0FF0
0FF0
3C3C
3C3C
3C3C
3C3C
0FF0
0FF0
3C3C
3C3C
3C3C
3C3C
0FF0
0FF0
0000
0000
ENDCHAR
STARTCHAR 9
ENCODING 57
SWIDTH 1 0
DWIDTH 16 0
BBX 16 16 0 0
BITMAP
0FF0
0FF0
3C3C
3C3C
3C3C
3C3C
0FF0
0FF0
003C
003C
3C3C
3C3C
0FF0
0FF0
0000
0000
ENDCHAR
STARTCHAR :
ENCODING 58
SWIDTH 1 0
DWIDTH 16 0
BBX 16 16 0 0
BITMAP
0000
0000
0000
0000
03C0
03C0
0000
0000
0000
0000
03C0
03C0
0000
0000
0000
0000
ENDCHAR
STARTCHAR ;
ENCODING 59
SWIDTH 1 0
DWIDTH 16 0
BBX 16 16 0 0
BITMAP
0000
0000
0000
0000
03C0
03C0
0000
0000
0000
0000
03C0
03C0
03C0
03C0
0F00
0F00
ENDCHAR
STARTCHAR =
ENCODING 61
SWIDTH 1 0
DWIDTH 16 0
BBX 16 16 0 0
BITMAP
0000
0000
0000
0000
3FFC
3FFC
0000
0000
3FFC
3FFC
0000
0000
0000
0000
0000
0000
ENDCHAR
STARTCHAR @
ENCODING 64
SWIDTH 1 0
DWIDTH 16 0
BBX 16 16 0 0
BITMAP
0FF0
0FF0
3C3C
3C3C
3CFC
3CFC
3CFC
3CFC
3C00
3C00
3C0C
3C0C
0FF0
0FF0
0000
0000
ENDCHAR
STARTCHAR A
ENCODING 65
SWIDTH 1 0
DWIDTH 16 0
BBX 16 16 0 0
BITMAP
03C0
03C0
0FF0
0FF0
3C3C
3C3C
3FFC
3FFC
3C3C
3C3C
3C3C
3C3C
3C3C
3C3C
0000
0000
ENDCHAR
STARTCHAR B
ENCODING 66
SWIDTH 1 0
DWIDTH 16 0
BBX 16 16 0 0
BITMAP
3FF0
3FF0
3C3C
3C3C
3C3C
3C3C
3FF0
3FF0
3C3C
3C3C
3C3C
3C3C
3FF0
3FF0
0000
0000
ENDCHAR
STARTCHAR C
ENCODING 67
SWIDTH 1 0
DWIDTH 16 0
BBX 16 16 0 0
BITMAP
0FF0
0FF0
3C3C
3C3C
3C00
3C00
3C00
3C00
3C00
3C00
3C3C
3C3C
0FF0
0FF0
0000
0000
ENDCHAR
STARTCHAR D
ENCODING 68
SWIDTH 1 0
DWIDTH 16 0
BBX 16 16 0 0
BITMAP
3FC0
3FC0
3CF0
3CF0
3C3C
3C3C
3C3C
3C3C
3C3C
3C3C
3CF0
3CF0
3FC0
3FC0
0000
0000
ENDCHAR
STARTCHAR E
ENCODING 69
SWIDTH 1 0
DWIDTH 16 0
BBX 16 16 0 0
BITMAP
3FFC
3FFC
3C00
3C00
3C00
3C00
3FC0
3FC0
3C00
3C00
3C00
3C00
3FFC
3FFC
0000
0000
ENDCHAR
STARTCHAR F
ENCODING 70
SWIDTH 1 0
DWIDTH 16 0
BBX 16 16 0 0
BITMAP
3FFC
3FFC
3C00
3C00
3C00
3C00
3FC0
3FC0
3C00
3C00
3C00
3C00
3C00
3C00
0000
0000
ENDCHAR
STARTCHAR G
ENCODING 71
SWIDTH 1 0
DWIDTH 16 0
BBX 16 16 0 0
BITMAP
3FF0
3FF0
3C3C
3C3C
3C00
3C00
3CFC
3CFC
3C3C
3C3C
3C3C
3C3C
3FF0
3FF0
0000
0000
ENDCHAR
STARTCHAR H
ENCODING 72
SWIDTH 1 0
DWIDTH 16 0
BBX 16 16 0 0
BITMAP
3C3C
3C3C
3C3C
3C3C
3C3C
3C3C
3FFC
3FFC
3C3C
3C3C
3C3C
3C3C
3C3C
3C3C
0000
0000
ENDCHAR
STARTCHAR I
ENCODING 73
SWIDTH 1 0
DWIDTH 16 0
BBX 16 16 0 0
BITMAP
0FF0
0FF0
03C0
03C0
03C0
03C0
03C0
03C0
03C0
03C0
03C0
03C0
0FF0
0FF0
0000
0000
ENDCHAR
STARTCHAR J
ENCODING 74
SWIDTH 1 0
DWIDTH 16 0
BBX 16 16 0 0
BITMAP
03FC
03FC
00F0
00F0
00F0
00F0
00F0
00F0
00F0
00F0
3CF0
3CF0
0FC0
0FC0
0000
0000
ENDCHAR
STARTCHAR K
ENCODING 75
SWIDTH 1 0
DWIDTH 16 0
BBX 16 16 0 0
BITMAP
3C3C
3C3C
3CF0
3CF0
3FC0
3FC0
3F00
3F00
3FC0
3FC0
3CF0
3CF0
3C3C
3C3C
0000
0000
ENDCHAR
STARTCHAR L
ENCODING 76
SWIDTH 1 0
DWIDTH 16 0
BBX 16 16 0 0
BITMAP
3C00
3C00
3C00
3C00
3C00
3C00
3C00
3C00
3C00
3C00
3C00
3C00
3FFC
3FFC
0000
0000
ENDCHAR
STARTCHAR M
ENCODING 77
SWIDTH 1 0
DWIDTH 16 0
BBX 16 16 0 0
BITMAP
3C0F
3C0F
3F3F
3F3F
3FFF
3FFF
3CCF
3CCF
3C0F
3C0F
3C0F
3C0F
3C0F
3C0F
0000
0000
ENDCHAR
STARTCHAR N
ENCODING 78
SWIDTH 1 0
DWIDTH 16 0
BBX 16 16 0 0
BITMAP
3C3C
3C3C
3F3C
3F3C
3FFC
3FFC
3FFC
3FFC
3CFC
3CFC
3C3C
3C3C
3C3C
3C3C
0000
0000
ENDCHAR
STARTCHAR O
ENCODING 79
SWIDTH 1 0
DWIDTH 16 0
BBX 16 16 0 0
BITMAP
0FF0
0FF0
3C3C
3C3C
3C3C
3C3C
3C3C
3C3C
3C3C
3C3C
3C3C
3C3C
0FF0
0FF0
0000
0000
ENDCHAR
STARTCHAR P
ENCODING 80
SWIDTH 1 0
DWIDTH 16 0
BBX 16 16 0 0
BITMAP
3FF0
3FF0
3C3C
3C3C
3C3C
3C3C
3FF0
3FF0
3C00
3C00
3C00
3C00
3C00
3C00
0000
0000
ENDCHAR
STARTCHAR Q
ENCODING 81
SWIDTH 1 0
DWIDTH 16 0
BBX 16 16 0 0
BITMAP
0FF0
0FF0
3C3C
3C3C
3C3C
3C3C
3C3C
3C3C
3C3C
3C3C
0FF0
0FF0
00FC
00FC
0000
0000
ENDCHAR
STARTCHAR R
ENCODING 82
SWIDTH 1 0
DWIDTH 16 0
BBX 16 16 0 0
BITMAP
3FF0
3FF0
3C3C
3C3C
3C3C
3C3C
3FF0
3FF0
3FC0
3FC0
3CF0
3CF0
3C3C
3C3C
0000
0000
ENDCHAR
STARTCHAR S
ENCODING 83
SWIDTH 1 0
DWIDTH 16 0
BBX 16 16 0 0
BITMAP
0FF0
0FF0
3C3C
3C3C
3C00
3C00
0FF0
0FF0
003C
003C
3C3C
3C3C
0FF0
0FF0
0000
0000
ENDCHAR
STARTCHAR T
ENCODING 84
SWIDTH 1 0
DWIDTH 16 0
BBX 16 16 0 0
BITMAP
3FFC
3FFC
03C0
03C0
03C0
03C0
03C0
03C0
03C0
03C0
03C0
03C0
03C0
03C0
0000
0000
ENDCHAR
STARTCHAR U
ENCODING 85
SWIDTH 1 0
DWIDTH 16 0
BBX 16 16 0 0
BITMAP
3C3C
3C3C
3C3C
3C3C
3C3C
3C3C
3C3C
3C3C
3C3C
3C3C
3C3C
3C3C
0FF0
0FF0
0000
0000
ENDCHAR
STARTCHAR V
ENCODING 86
SWIDTH 1 0
DWIDTH 16 0
BBX 16 16 0 0
BITMAP
3C3C
3C3C
3C3C
3C3C
3C3C
3C3C
3C3C
3C3C
3C3C
3C3C
0FF0
0FF0
03C0
03C0
0000
0000
ENDCHAR
STARTCHAR W
ENCODING 87
SWIDTH 1 0
DWIDTH 16 0
BBX 16 16 0 0
BITMAP
3C0F
3C0F
3C0F
3C0F
3C0F
3C0F
3CCF
3CCF
3FFF
3FFF
3F3F
3F3F
3C0F
3C0F
0000
0000
ENDCHAR
STARTCHAR X
ENCODING 88
SWIDTH 1 0
DWIDTH 16 0
BBX 16 16 0 0
BITMAP
3C3C
3C3C
3C3C
3C3C
0FF0
0FF0
03C0
03C0
0FF0
0FF0
3C3C
3C3C
3C3C
3C3C
0000
0000
ENDCHAR
STARTCHAR Y
ENCODING 89
SWIDTH 1 0
DWIDTH 16 0
BBX 16 16 0 0
BITMAP
3C3C
3C3C
3C3C
3C3C
3C3C
3C3C
0FF0
0FF0
03C0
03C0
03C0
03C0
03C0
03C0
0000
0000
ENDCHAR
STARTCHAR Z
ENCODING 90
SWIDTH 1 0
DWIDTH 16 0
BBX 16 16 0 0
BITMAP
3FFC
3FFC
003C
003C
00F0
00F0
03C0
03C0
0F00
0F00
3C00
3C00
3FFC
3FFC
0000
0000
ENDCHAR
STARTCHAR [
ENCODING 91
SWIDTH 1 0
DWIDTH 16 0
BBX 16 16 0 0
BITMAP
0FF0
0FF0
0F00
0F00
0F00
0F00
0F00
0F00
0F00
0F00
0F00
0F00
0FF0
0FF0
0000
0000
ENDCHAR
STARTCHAR ]
ENCODING 93
SWIDTH 1 0
DWIDTH 16 0
BBX 16 16 0 0
BITMAP
0FF0
0FF0
00F0
00F0
00F0
00F0
00F0
00F0
00F0
00F0
00F0
00F0
0FF0
0FF0
0000
0000
ENDCHAR
STARTCHAR _
ENCODING 95
SWIDTH 1 0
DWIDTH 16 0
BBX 16 16 0 0
BITMAP
0000
0000
0000
0000
0000
0000
0000
0000
0000
0000
0000
0000
0000
0000
FFFF
FFFF
ENDCHAR
STARTCHAR `
ENCODING 96
SWIDTH 1 0
DWIDTH 16 0
BBX 16 16 0 0
BITMAP
3C00
3C00
0F00
0F00
03C0
03C0
0000
0000
0000
0000
0000
0000
0000
0000
0000
0000
ENDCHAR
STARTCHAR a
ENCODING 97
SWIDTH 1 0
DWIDTH 16 0
BBX 16 16 0 0
BITMAP
0000
0000
0000
0000
0FF0
0FF0
003C
003C
0FFC
0FFC
3C3C
3C3C
0FFC
0FFC
0000
0000
ENDCHAR
STARTCHAR arrowup
ENCODING 94
SWIDTH 1 0
DWIDTH 16 0
BBX 16 16 0 0
BITMAP
0000
0000
03C0
03C0
0FF0
0FF0
3FFC
3FFC
03C0
03C0
03C0
03C0
03C0
03C0
03C0
03C0
ENDCHAR
STARTCHAR b
ENCODING 98
SWIDTH 1 0
DWIDTH 16 0
BBX 16 16 0 0
BITMAP
0000
0000
3C00
3C00
3C00
3C00
3FF0
3FF0
3C3C
3C3C
3C3C
3C3C
3FF0
3FF0
0000
0000
ENDCHAR
STARTCHAR c
ENCODING 99
SWIDTH 1 0
DWIDTH 16 0
BBX 16 16 0 0
BITMAP
0000
0000
0000
0000
0FF0
0FF0
3C00
3C00
3C00
3C00
3C00
3C00
0FF0
0FF0
0000
0000
ENDCHAR
STARTCHAR d
ENCODING 100
SWIDTH 1 0
DWIDTH 16 0
BBX 16 16 0 0
BITMAP
0000
0000
003C
003C
003C
003C
0FFC
0FFC
3C3C
3C3C
3C3C
3C3C
0FFC
0FFC
0000
0000
ENDCHAR
STARTCHAR dot
ENCODING 46
SWIDTH 1 0
DWIDTH 16 0
BBX 16 16 0 0
BITMAP
0000
0000
0000
0000
0000
0000
0000
0000
0000
0000
03C0
03C0
03C0
03C0
0000
0000
ENDCHAR
STARTCHAR e
ENCODING 101
SWIDTH 1 0
DWIDTH 16 0
BBX 16 16 0 0
BITMAP
0000
0000
0000
0000
0FF0
0FF0
3C3C
3C3C
3FFC
3FFC
3C00
3C00
0FF0
0FF0
0000
0000
ENDCHAR
STARTCHAR excl
ENCODING 33
SWIDTH 1 0
DWIDTH 16 0
BBX 16 16 0 0
BITMAP
03C0
03C0
03C0
03C0
03C0
03C0
03C0
03C0
0000
0000
0000
0000
03C0
03C0
0000
0000
ENDCHAR
STARTCHAR f
ENCODING 102
SWIDTH 1 0
DWIDTH 16 0
BBX 16 16 0 0
BITMAP
0000
0000
00FC
00FC
03C0
03C0
0FFC
0FFC
03C0
03C0
03C0
03C0
03C0
03C0
0000
0000
ENDCHAR
STARTCHAR g
ENCODING 103
SWIDTH 1 0
DWIDTH 16 0
BBX 16 16 0 0
BITMAP
0000
0000
0000
0000
0FFC
0FFC
3C3C
3C3C
3C3C
3C3C
0FFC
0FFC
003C
003C
3FF0
3FF0
ENDCHAR
STARTCHAR gt
ENCODING 62
SWIDTH 1 0
DWIDTH 16 0
BBX 16 16 0 0
BITMAP
3F00
3F00
03C0
03C0
00F0
00F0
003C
003C
00F0
00F0
03C0
03C0
3F00
3F00
0000
0000
ENDCHAR
STARTCHAR h
ENCODING 104
SWIDTH 1 0
DWIDTH 16 0
BBX 16 16 0 0
BITMAP
0000
0000
3C00
3C00
3C00
3C00
3FF0
3FF0
3C3C
3C3C
3C3C
3C3C
3C3C
3C3C
0000
0000
ENDCHAR
STARTCHAR i
ENCODING 105
SWIDTH 1 0
DWIDTH 16 0
BBX 16 16 0 0
BITMAP
0000
0000
03C0
03C0
0000
0000
0FC0
0FC0
03C0
03C0
03C0
03C0
0FF0
0FF0
0000
0000
ENDCHAR
STARTCHAR j
ENCODING 106
SWIDTH 1 0
DWIDTH 16 0
BBX 16 16 0 0
BITMAP
0000
0000
003C
003C
0000
0000
003C
003C
003C
003C
003C
003C
003C
003C
0FF0
0FF0
ENDCHAR
STARTCHAR k
ENCODING 107
SWIDTH 1 0
DWIDTH 16 0
BBX 16 16 0 0
BITMAP
0000
0000
3C00
3C00
3C00
3C00
3CF0
3CF0
3FC0
3FC0
3CF0
3CF0
3C3C
3C3C
0000
0000
ENDCHAR
STARTCHAR l
ENCODING 108
SWIDTH 1 0
DWIDTH 16 0
BBX 16 16 0 0
BITMAP
0000
0000
3F00
3F00
0F00
0F00
0F00
0F00
0F00
0F00
0F00
0F00
3FC0
3FC0
0000
0000
ENDCHAR
STARTCHAR lt
ENCODING 60
SWIDTH 1 0
DWIDTH 16 0
BBX 16 16 0 0
BITMAP
00FC
00FC
03C0
03C0
0F00
0F00
3C00
3C00
0F00
0F00
03C0
03C0
00FC
00FC
0000
0000
ENDCHAR
STARTCHAR m
ENCODING 109
SWIDTH 1 0
DWIDTH 16 0
BBX 16 16 0 0
BITMAP
0000
0000
0000
0000
3C3C
3C3C
3FFF
3FFF
3FFF
3FFF
3CCF
3CCF
3C0F
3C0F
0000
0000
ENDCHAR
STARTCHAR minus
ENCODING 45
SWIDTH 1 0
DWIDTH 16 0
BBX 16 16 0 0
BITMAP
0000
0000
0000
0000
0000
0000
3FFC
3FFC
0000
0000
0000
0000
0000
0000
0000
0000
ENDCHAR
STARTCHAR n
ENCODING 110
SWIDTH 1 0
DWIDTH 16 0
BBX 16 16 0 0
BITMAP
0000
0000
0000
0000
3FF0
3FF0
3C3C
3C3C
3C3C
3C3C
3C3C
3C3C
3C3C
3C3C
0000
0000
ENDCHAR
STARTCHAR o
ENCODING 111
SWIDTH 1 0
DWIDTH 16 0
BBX 16 16 0 0
BITMAP
0000
0000
0000
0000
0FF0
0FF0
3C3C
3C3C
3C3C
3C3C
3C3C
3C3C
0FF0
0FF0
0000
0000
ENDCHAR
STARTCHAR p
ENCODING 112
SWIDTH 1 0
DWIDTH 16 0
BBX 16 16 0 0
BITMAP
0000
0000
0000
0000
3FF0
3FF0
3C3C
3C3C
3C3C
3C3C
3FF0
3FF0
3C00
3C00
3C00
3C00
ENDCHAR
STARTCHAR pipe
ENCODING 124
SWIDTH 1 0
DWIDTH 16 0
BBX 16 16 0 0
BITMAP
0000
0000
03C0
03C0
03C0
03C0
0300
0300
00C0
00C0
03C0
03C0
03C0
03C0
0000
0000
ENDCHAR
STARTCHAR pound
ENCODING 163
SWIDTH 1 0
DWIDTH 16 0
BBX 16 16 0 0
BITMAP
00F0
00F0
030C
030C
0F00
0F00
3FF0
3FF0
0F00
0F00
3C0C
3C0C
FFF0
FFF0
0000
0000
ENDCHAR
STARTCHAR q
ENCODING 113
SWIDTH 1 0
DWIDTH 16 0
BBX 16 16 0 0
BITMAP
0000
0000
0000
0000
0FFC
0FFC
3C3C
3C3C
3C3C
3C3C
0FFC
0FFC
003C
003C
003C
003C
ENDCHAR
STARTCHAR qmark
ENCODING 63
SWIDTH 1 0
DWIDTH 16 0
BBX 16 16 0 0
BITMAP
0FF0
0FF0
3C3C
3C3C
003C
003C
00F0
00F0
03C0
03C0
0000
0000
03C0
03C0
0000
0000
ENDCHAR
STARTCHAR quote
ENCODING 34
SWIDTH 1 0
DWIDTH 16 0
BBX 16 16 0 0
BITMAP
3C3C
3C3C
3C3C
3C3C
3C3C
3C3C
0000
0000
0000
0000
0000
0000
0000
0000
0000
0000
ENDCHAR
STARTCHAR r
ENCODING 114
SWIDTH 1 0
DWIDTH 16 0
BBX 16 16 0 0
BITMAP
0000
0000
0000
0000
3FF0
3FF0
3C3C
3C3C
3C00
3C00
3C00
3C00
3C00
3C00
0000
0000
ENDCHAR
STARTCHAR s
ENCODING 115
SWIDTH 1 0
DWIDTH 16 0
BBX 16 16 0 0
BITMAP
0000
0000
0000
0000
0FFC
0FFC
3C00
3C00
0FF0
0FF0
003C
003C
3FF0
3FF0
0000
0000
ENDCHAR
STARTCHAR slash
ENCODING 47
SWIDTH 1 0
DWIDTH 16 0
BBX 16 16 0 0
BITMAP
0000
0000
000F
000F
003C
003C
00F0
00F0
03C0
03C0
0F00
0F00
3C00
3C00
0000
0000
ENDCHAR
STARTCHAR slashback
ENCODING 92
SWIDTH 1 0
DWIDTH 16 0
BBX 16 16 0 0
BITMAP
0000
0000
3C00
3C00
0F00
0F00
03C0
03C0
00F0
00F0
003C
003C
000F
000F
0000
0000
ENDCHAR
STARTCHAR spc
ENCODING 32
SWIDTH 1 0
DWIDTH 16 0
BBX 16 16 0 0
BITMAP
0000
0000
0000
0000
0000
0000
0000
0000
0000
0000
0000
0000
0000
0000
0000
0000
ENDCHAR
STARTCHAR star
ENCODING 42
SWIDTH 1 0
DWIDTH 16 0
BBX 16 16 0 0
BITMAP
0000
0000
3C3C
3C3C
0FF0
0FF0
FFFF
FFFF
0FF0
0FF0
3C3C
3C3C
0000
0000
0000
0000
ENDCHAR
STARTCHAR t
ENCODING 116
SWIDTH 1 0
DWIDTH 16 0
BBX 16 16 0 0
BITMAP
0000
0000
03C0
03C0
3FFC
3FFC
03C0
03C0
03C0
03C0
03C0
03C0
00FC
00FC
0000
0000
ENDCHAR
STARTCHAR tilda
ENCODING 126
SWIDTH 1 0
DWIDTH 16 0
BBX 16 16 0 0
BITMAP
0000
0000
0F0C
0F0C
30F0
30F0
0000
0000
0000
0000
0000
0000
0000
0000
0000
0000
ENDCHAR
STARTCHAR u
ENCODING 117
SWIDTH 1 0
DWIDTH 16 0
BBX 16 16 0 0
BITMAP
0000
0000
0000
0000
3C3C
3C3C
3C3C
3C3C
3C3C
3C3C
3C3C
3C3C
0FFC
0FFC
0000
0000
ENDCHAR
STARTCHAR v
ENCODING 118
SWIDTH 1 0
DWIDTH 16 0
BBX 16 16 0 0
BITMAP
0000
0000
0000
0000
3C3C
3C3C
3C3C
3C3C
3C3C
3C3C
0FF0
0FF0
03C0
03C0
0000
0000
ENDCHAR
STARTCHAR w
ENCODING 119
SWIDTH 1 0
DWIDTH 16 0
BBX 16 16 0 0
BITMAP
0000
0000
0000
0000
3C0F
3C0F
3CCF
3CCF
3FFF
3FFF
0FFC
0FFC
0F3C
0F3C
0000
0000
ENDCHAR
STARTCHAR x
ENCODING 120
SWIDTH 1 0
DWIDTH 16 0
BBX 16 16 0 0
BITMAP
0000
0000
0000
0000
3C3C
3C3C
0FF0
0FF0
03C0
03C0
0FF0
0FF0
3C3C
3C3C
0000
0000
ENDCHAR
STARTCHAR y
ENCODING 121
SWIDTH 1 0
DWIDTH 16 0
BBX 16 16 0 0
BITMAP
0000
0000
0000
0000
3C3C
3C3C
3C3C
3C3C
3C3C
3C3C
0FFC
0FFC
00F0
00F0
3FC0
3FC0
ENDCHAR
STARTCHAR z
ENCODING 122
SWIDTH 1 0
DWIDTH 16 0
BBX 16 16 0 0
BITMAP
0000
0000
0000
0000
3FFC
3FFC
00F0
00F0
03C0
03C0
0F00
0F00
3FFC
3FFC
0000
0000
ENDCHAR
STARTCHAR {
ENCODING 123
SWIDTH 1 0
DWIDTH 16 0
BBX 16 16 0 0
BITMAP
03C0
03C0
0F00
0F00
0F00
0F00
3F00
3F00
0F00
0F00
0F00
0F00
03C0
03C0
0000
0000
ENDCHAR
STARTCHAR }
ENCODING 125
SWIDTH 1 0
DWIDTH 16 0
BBX 16 16 0 0
BITMAP
0F00
0F00
03C0
03C0
03C0
03C0
03F0
03F0
03C0
03C0
03C0
03C0
0F00
0F00
0000
0000
ENDCHAR
ENDFONT
